<?xml version="1.0" encoding="utf-8"?>
<!-- Generator: Adobe Illustrator 22.1.0, SVG Export Plug-In . SVG Version: 6.00 Build 0)  -->
<svg version="1.1" id="Layer_1" xmlns="http://www.w3.org/2000/svg" xmlns:xlink="http://www.w3.org/1999/xlink" x="0px" y="0px"
	 viewBox="0 0 300 64" style="enable-background:new 0 0 300 64;" xml:space="preserve">
<style type="text/css">
	.st0{fill:#FFFFFF;}
</style>
<g>
	<polygon class="st0" points="32.2,21.7 1,1.1 1,62.9 62.8,62.9 62.8,1.1 	"/>
	<g>
		<path class="st0" d="M91.8,55.7l8.2-41.9l13.4,30.3l13.9-30.3l7.4,41.9h-6l-3.8-23.6l-11.5,25.3l-11.2-25.4l-4.2,23.6H91.8z"/>
		<path class="st0" d="M165.8,46.3h-16.7l-4.3,9.5h-6.3l19.3-41.5l18.6,41.5h-6.4L165.8,46.3z M163.4,40.7l-5.8-13.3l-6.1,13.3
			H163.4z"/>
		<path class="st0" d="M187.1,32.3l15.2-15.6h7.9l-17.6,17.7l17.7,21.4h-7.9l-14-17.4l-1.2,1.2v16.1h-5.9v-39h5.9V32.3z"/>
		<path class="st0" d="M237,22.2h-15.6v9.4h15.2v5.5h-15.2v13H237v5.5h-21.5v-39H237V22.2z"/>
		<path class="st0" d="M258,39.1l12.1,16.6h-7.2l-11.1-16h-1.1v16h-5.9v-39h6.9c5.2,0,8.9,1,11.2,2.9c2.5,2.2,3.8,5,3.8,8.5
			c0,2.8-0.8,5.1-2.4,7.1C262.7,37.3,260.6,38.5,258,39.1z M250.7,34.6h1.9c5.6,0,8.4-2.1,8.4-6.4c0-4-2.7-6-8.1-6h-2.1V34.6z"/>
		<path class="st0" d="M298,22.5l-4.8,2.8c-0.9-1.5-1.7-2.6-2.6-3c-0.8-0.5-1.9-0.8-3.3-0.8c-1.6,0-3,0.5-4.1,1.4
			c-1.1,0.9-1.6,2.1-1.6,3.4c0,1.9,1.4,3.4,4.2,4.6l3.9,1.6c3.2,1.3,5.5,2.8,6.9,4.7c1.5,1.8,2.2,4.1,2.2,6.8c0,3.6-1.2,6.6-3.6,8.9
			c-2.4,2.4-5.4,3.5-9,3.5c-3.4,0-6.2-1-8.4-3c-2.2-2-3.5-4.8-4.1-8.5l6-1.3c0.3,2.3,0.7,3.9,1.4,4.8c1.2,1.7,3,2.5,5.3,2.5
			c1.8,0,3.4-0.6,4.6-1.8c1.2-1.2,1.8-2.8,1.8-4.7c0-0.8-0.1-1.5-0.3-2.1c-0.2-0.6-0.5-1.2-1-1.7c-0.4-0.5-1-1-1.7-1.5
			c-0.7-0.5-1.5-0.9-2.5-1.3l-3.8-1.6c-5.3-2.3-8-5.6-8-9.9c0-2.9,1.1-5.4,3.4-7.4c2.2-2,5-3,8.4-3C291.9,16,295.5,18.1,298,22.5z"
			/>
	</g>
</g>
</svg>
